<svg xmlns="http://www.w3.org/2000/svg" viewBox="0 0 800 450"><rect width="800" height="450" fill="#f3f4f6"/><rect y="330" width="800" height="120" fill="#e5e7eb"/><path d="M120 300 L170 220 Q185 195 230 190 L570 190 Q620 195 650 230 L690 300 L720 315 Q735 325 735 350 L735 365 L65 365 L65 345 Q65 320 85 312 Z" fill="#6b7280" stroke="#111827" stroke-width="8"/><path d="M225 205 L280 205 L300 270 L190 270 Z M315 205 L550 205 Q585 208 615 270 L320 270 Z" fill="#bfdbfe" stroke="#111827" stroke-width="6"/><circle cx="190" cy="365" r="45" fill="#111827"/><circle cx="190" cy="365" r="20" fill="#9ca3af"/><circle cx="620" cy="365" r="45" fill="#111827"/><circle cx="620" cy="365" r="20" fill="#9ca3af"/><rect x="95" y="285" width="70" height="18" rx="9" fill="#fbbf24"/><rect x="655" y="285" width="35" height="18" rx="9" fill="#ef4444"/><text x="400" y="75" text-anchor="middle" font-family="Arial,sans-serif" font-size="32" font-weight="700" fill="#111827">Hyundai H1 Carga</text><text x="400" y="115" text-anchor="middle" font-family="Arial,sans-serif" font-size="18" fill="#6b7280">Viatura para aluguer</text></svg>